<svg xmlns="http://www.w3.org/2000/svg" viewBox="0 0 588 667" width="588" height="667">
	<style>
		tspan { white-space:pre }
		.shp0 { fill: none;stroke: #04d361;stroke-linecap:round;stroke-linejoin:round;stroke-width: 3 } 
	</style>
	<path id="Layer" fill-rule="evenodd" class="shp0" d="M500.57 661.4C495.53 661.4 491.44 657.34 491.44 652.32C491.44 647.31 495.53 643.24 500.57 643.24C505.61 643.24 509.7 647.31 509.7 652.32C509.7 657.32 505.61 661.4 500.57 661.4ZM412.87 138.42C408.32 138.42 404.61 134.75 404.61 130.21C404.61 125.69 408.3 122 412.87 122C417.42 122 421.12 125.67 421.12 130.21C421.11 134.75 417.42 138.42 412.87 138.42ZM577.74 345.17C573.19 345.17 569.49 341.5 569.49 336.96C569.49 332.43 573.18 328.75 577.74 328.75C582.29 328.75 586 332.42 586 336.96C585.98 341.5 582.29 345.17 577.74 345.17ZM58.59 471.91C54.04 471.91 50.33 468.24 50.33 463.69C50.33 459.17 54.03 455.48 58.59 455.48C63.14 455.48 66.85 459.15 66.85 463.69C66.83 468.24 63.14 471.91 58.59 471.91L58.59 471.91ZM494.27 658.89L487.81 665.29M329.22 11.55L319.61 2M329.22 2L319.61 11.55M315.46 576.76L305.85 586.32M315.46 586.32L305.85 576.76M15.43 187.27L1.84 187.27M8.64 194.05L8.64 180.52" />
</svg>